<?xml version="1.0" encoding="UTF-8" standalone="no"?>
<svg
   viewBox="0 0 24 24"
   version="1.1"
   id="svg58"
   sodipodi:docname="icon.svg"
   inkscape:version="1.2.2 (b0a8486541, 2022-12-01)"
   inkscape:export-filename="tune-vertical-variant_d1.svg"
   inkscape:export-xdpi="96"
   inkscape:export-ydpi="96"
   xmlns:inkscape="http://www.inkscape.org/namespaces/inkscape"
   xmlns:sodipodi="http://sodipodi.sourceforge.net/DTD/sodipodi-0.dtd"
   xmlns="http://www.w3.org/2000/svg"
   xmlns:svg="http://www.w3.org/2000/svg">
  <defs
     id="defs62">
    <filter
       style="color-interpolation-filters:sRGB;"
       inkscape:label="Drop Shadow"
       id="filter6734"
       x="-0.060000001"
       y="-0.024"
       width="1.12"
       height="1.053">
      <feFlood
         flood-opacity="0.564706"
         flood-color="rgb(48,48,48)"
         result="flood"
         id="feFlood6724" />
      <feComposite
         in="flood"
         in2="SourceGraphic"
         operator="in"
         result="composite1"
         id="feComposite6726" />
      <feGaussianBlur
         in="composite1"
         stdDeviation="0.2"
         result="blur"
         id="feGaussianBlur6728" />
      <feOffset
         dx="0"
         dy="0.1"
         result="offset"
         id="feOffset6730" />
      <feComposite
         in="SourceGraphic"
         in2="offset"
         operator="over"
         result="composite2"
         id="feComposite6732" />
    </filter>
    <filter
       style="color-interpolation-filters:sRGB;"
       inkscape:label="Drop Shadow"
       id="filter6746"
       x="-0.060000001"
       y="-0.024"
       width="1.12"
       height="1.053">
      <feFlood
         flood-opacity="0.564706"
         flood-color="rgb(48,48,48)"
         result="flood"
         id="feFlood6736" />
      <feComposite
         in="flood"
         in2="SourceGraphic"
         operator="in"
         result="composite1"
         id="feComposite6738" />
      <feGaussianBlur
         in="composite1"
         stdDeviation="0.2"
         result="blur"
         id="feGaussianBlur6740" />
      <feOffset
         dx="0"
         dy="0.1"
         result="offset"
         id="feOffset6742" />
      <feComposite
         in="SourceGraphic"
         in2="offset"
         operator="over"
         result="composite2"
         id="feComposite6744" />
    </filter>
  </defs>
  <sodipodi:namedview
     id="namedview60"
     pagecolor="#ffffff"
     bordercolor="#eeeeee"
     borderopacity="1"
     inkscape:showpageshadow="0"
     inkscape:pageopacity="0"
     inkscape:pagecheckerboard="true"
     inkscape:deskcolor="#505050"
     showgrid="false"
     inkscape:zoom="17.223789"
     inkscape:cx="19.914317"
     inkscape:cy="13.760038"
     inkscape:window-width="960"
     inkscape:window-height="1007"
     inkscape:window-x="960"
     inkscape:window-y="0"
     inkscape:window-maximized="0"
     inkscape:current-layer="svg58"
     showborder="true" />
  <path
     d="m 18,2 h -2 v 2.14 c -1.72,0.45 -3,2 -3,3.86 0,1.86 1.28,3.41 3,3.86 V 22 h 2 V 11.86 C 19.72,11.41 21,9.86 21,8 21,6.14 19.72,4.59 18,4.14 V 2 m -1,4 c 1.1,0 2,0.9 2,2 0,1.1 -0.9,2 -2,2 -1.1,0 -2,-0.9 -2,-2 0,-1.1 0.9,-2 2,-2 z"
     id="path427"
     sodipodi:nodetypes="cccsccccsccsssss"
     inkscape:label="right"
     style="fill:#d0bcff;fill-opacity:1;filter:url(#filter6746)" />
  <path
     d="M 8,12.14 V 2 H 6 V 12.14 C 4.28,12.59 3,14.370426 3,16 c 0,1.629574 1.28,3.41 3,3.86 V 22 h 2 v -2.14 c 1.72,-0.45 3,-2 3,-3.86 0,-1.86 -1.28,-3.41 -3,-3.86 M 7,14 c 1.1,0 2,0.9 2,2 0,1.1 -0.9,2 -2,2 -1.1,0 -2,-0.9 -2,-2 0,-1.1 0.9,-2 2,-2"
     id="path56"
     sodipodi:nodetypes="cccczccccsccsssc"
     style="display:inline;fill:#d0bcff;fill-opacity:1;filter:url(#filter6734)"
     inkscape:label="left" />
  <circle
     style="fill:#9c77ff;stroke-width:1.39404;fill-opacity:1"
     id="path373"
     cy="15.922355"
     cx="7"
     r="2.2486558" />
  <circle
     style="fill:#9c77ff;stroke-width:1.39404;fill-opacity:1"
     id="path373-3"
     cy="7.9981036"
     cx="16.975969"
     r="2.2486558" />
</svg>
