<?xml version="1.0" encoding="UTF-8" standalone="no"?>
<svg
   viewBox="0 0 24 24"
   version="1.1"
   xmlns="http://www.w3.org/2000/svg"
   xmlns:svg="http://www.w3.org/2000/svg">

  <path
     d="m 18,2 h -2 v 2.14 c -1.72,0.45 -3,2 -3,3.86 0,1.86 1.28,3.41 3,3.86 V 22 h 2 V 11.86 C 19.72,11.41 21,9.86 21,8 21,6.14 19.72,4.59 18,4.14 V 2 m -1,4 c 1.1,0 2,0.9 2,2 0,1.1 -0.9,2 -2,2 -1.1,0 -2,-0.9 -2,-2 0,-1.1 0.9,-2 2,-2 z"
     style="fill:#d0bcff;fill-opacity:1" />
  <path
     d="M 8,12.14 V 2 H 6 V 12.14 C 4.28,12.59 3,14.370426 3,16 c 0,1.629574 1.28,3.41 3,3.86 V 22 h 2 v -2.14 c 1.72,-0.45 3,-2 3,-3.86 0,-1.86 -1.28,-3.41 -3,-3.86 M 7,14 c 1.1,0 2,0.9 2,2 0,1.1 -0.9,2 -2,2 -1.1,0 -2,-0.9 -2,-2 0,-1.1 0.9,-2 2,-2"
     style="display:inline;fill:#d0bcff;fill-opacity:1" />
  <circle
     style="fill:#9c77ff;stroke-width:1.39404;fill-opacity:1"
     cy="15.922355"
     cx="7"
     r="2.2486558" />
  <circle
     style="fill:#9c77ff;stroke-width:1.39404;fill-opacity:1"
     cy="7.9981036"
     cx="16.975969"
     r="2.2486558" />
</svg>
